<svg width="16" height="16" viewBox="0 0 16 16" fill="none" xmlns="http://www.w3.org/2000/svg">
  <path class="svg-fill" d="M13.4934 8.69457C13.2327 8.69457 13.0092 8.89433 12.9889 9.15504C12.7553 11.9686 10.3887 14.1626 7.51079 14.1626C4.48055 14.1626 2.01234 11.7113 2.01234 8.69796C2.01234 5.73204 4.40268 3.30785 7.36859 3.23336C7.44647 3.22998 7.50741 3.29092 7.50741 3.36879V5.07182C7.50741 5.49843 7.97803 5.75574 8.3403 5.5289L11.5974 3.25029C11.936 3.03699 11.936 2.54605 11.5974 2.33275L8.34369 0.0846151C7.98141 -0.14223 7.51079 0.115087 7.51079 0.541691V2.08898C7.51079 2.16346 7.45324 2.22441 7.37875 2.22441C3.84403 2.29551 1 5.16662 1 8.69796C1 12.2733 3.91513 15.1681 7.51079 15.1681C10.9236 15.1681 13.7203 12.5713 13.9979 9.23968C14.025 8.94512 13.788 8.69457 13.4934 8.69457Z" />
</svg>
